<svg width="50" height="54" viewBox="0 0 50 54" fill="none" xmlns="http://www.w3.org/2000/svg">
<path d="M38.176 43.424C38.2613 43.2107 38.56 43.1253 39.072 43.168C39.584 43.2107 40.2453 43.4027 41.056 43.744C41.8667 44.0427 42.5493 44.4053 43.104 44.832C45.408 46.4107 46.0907 48.0107 45.152 49.632C44.4267 50.9547 42.976 51.2533 40.8 50.528C39.9893 50.2293 39.52 50.016 39.392 49.888C39.3067 49.7173 39.4347 49.3547 39.776 48.8C40.6293 47.1787 40.4587 45.856 39.264 44.832C38.5387 44.192 38.176 43.7227 38.176 43.424ZM28.512 26.4C30.7307 25.6747 32.2453 25.44 33.056 25.696C34.1653 25.952 34.7413 26.272 34.784 26.656C34.8693 26.9973 34.464 27.5307 33.568 28.256C32.8427 28.896 32.3947 29.3867 32.224 29.728C32.096 30.0693 32.1173 30.5813 32.288 31.264C32.416 32.0747 32.7787 32.8 33.376 33.44C34.016 34.0373 34.6773 34.336 35.36 34.336C35.9573 34.336 36.4907 34.592 36.96 35.104C37.472 35.616 37.6213 36.0427 37.408 36.384C37.2373 36.7253 36.4267 37.088 34.976 37.472C33.824 37.728 33.0347 38.1333 32.608 38.688C32.1813 39.2427 32.0107 40.032 32.096 41.056C32.1813 41.9947 32.096 42.6773 31.84 43.104C31.584 43.5307 31.392 45.024 31.264 47.584C31.136 50.144 30.9013 51.5733 30.56 51.872C30.2187 52.1707 28.8747 51.744 26.528 50.592C24.224 49.44 22.816 48.864 22.304 48.864C21.8347 48.864 21.1307 49.504 20.192 50.784C19.2533 51.936 18.528 52.5973 18.016 52.768C17.504 52.9813 16.9493 52.7893 16.352 52.192C15.6693 51.424 15.0507 50.4427 14.496 49.248C13.9413 48.0107 13.6853 47.1147 13.728 46.56C13.8133 46.0907 14.048 45.8133 14.432 45.728C14.8587 45.6 16.1387 45.5787 18.272 45.664C20.4053 45.7067 21.7493 45.6853 22.304 45.6C22.9013 45.5147 23.6907 45.1307 24.672 44.448C25.568 43.8933 26.144 43.4453 26.4 43.104C26.6987 42.7627 26.848 42.3147 26.848 41.76C26.848 41.0347 26.6347 40.6293 26.208 40.544C25.824 40.4587 25.056 40.6293 23.904 41.056C22.9653 41.3973 22.2613 41.376 21.792 40.992C20.64 40.0107 21.1093 38.432 23.2 36.256C27.808 31.52 28.64 29.152 25.696 29.152C24.8427 29.152 24.2027 29.0027 23.776 28.704C23.392 28.448 23.4347 28.2133 23.904 28C24.3307 27.8293 25.8667 27.296 28.512 26.4ZM27.296 35.36C27.296 34.976 27.1467 34.784 26.848 34.784C26.5493 34.784 26.2507 35.0827 25.952 35.68C25.6533 36.2347 25.6107 36.576 25.824 36.704C25.9947 36.9173 26.272 36.8533 26.656 36.512C27.0827 36.1707 27.296 35.7867 27.296 35.36ZM28.512 1.76C28.512 0.650664 28.7893 0.0959969 29.344 0.0959969C29.6427 0.0959969 29.8347 0.458664 29.92 1.184C30.0053 1.568 30.176 1.824 30.432 1.952C30.688 2.08 31.2427 2.16533 32.096 2.208C33.0773 2.25067 34.0373 2.48533 34.976 2.912C35.9573 3.296 36.448 3.65866 36.448 4C36.448 4.21333 35.5307 4.53333 33.696 4.96C32.4587 5.30133 31.6907 5.57866 31.392 5.792C31.0933 6.00533 30.9013 6.38933 30.816 6.944C30.7733 7.584 30.8587 8.01067 31.072 8.224C31.328 8.43733 32.0533 8.75733 33.248 9.184C34.4 9.568 35.1253 9.93067 35.424 10.272C35.7653 10.6133 35.7227 11.0187 35.296 11.488C34.8693 11.9147 33.9307 12.4907 32.48 13.216C30.048 14.5387 28.896 15.4773 29.024 16.032C29.0667 16.288 29.3867 16.416 29.984 16.416C30.752 16.416 31.7973 16.1387 33.12 15.584C34.4853 15.0293 35.168 14.6027 35.168 14.304C35.168 14.048 35.5947 13.92 36.448 13.92C37.3013 13.92 38.2613 14.0267 39.328 14.24C40.3947 14.4533 41.1627 14.7093 41.632 15.008C42.9547 15.8187 42.2933 16.5013 39.648 17.056C39.3493 17.0987 39.0293 17.1413 38.688 17.184C36.768 17.5253 35.68 17.824 35.424 18.08C35.296 18.2507 35.5307 18.5067 36.128 18.848C36.5973 19.0613 37.216 19.3173 37.984 19.616C40.5867 20.64 43.1467 21.8133 45.664 23.136C48.1813 24.416 49.4613 25.2907 49.504 25.76C49.632 26.4427 49.312 26.784 48.544 26.784C47.9467 26.784 47.2 26.5493 46.304 26.08C44.9813 25.44 44.0213 25.12 43.424 25.12C42.8693 25.12 42.592 24.928 42.592 24.544C42.592 24.1173 42.016 23.584 40.864 22.944C39.712 22.304 38.4747 21.856 37.152 21.6C35.6587 21.2587 34.3787 20.832 33.312 20.32C32.2453 19.7653 31.4347 19.5093 30.88 19.552C30.368 19.5947 29.2373 20.0853 27.488 21.024C26.208 21.7067 25.2267 22.3253 24.544 22.88C23.904 23.392 23.2 24.224 22.432 25.376C21.1093 27.1253 18.9333 29.5573 15.904 32.672C12.9173 35.7867 11.424 37.5147 11.424 37.856C11.424 38.3253 11.0187 39.3067 10.208 40.8C9.39733 42.2933 8.52267 43.68 7.584 44.96C6.688 46.2827 5.92 46.9653 5.28 47.008C4.64 47.008 3.97867 46.368 3.296 45.088C2.144 43.04 2.05867 41.5467 3.04 40.608C3.50933 40.096 4 39.2427 4.512 38.048C5.06667 36.8107 5.344 35.872 5.344 35.232C5.344 34.6773 5.088 34.3147 4.576 34.144C4.064 33.9733 3.168 33.3333 1.888 32.224C1.07733 31.5413 0.565334 31.0293 0.352 30.688C0.138667 30.3467 0.0746668 29.9413 0.16 29.472C0.373333 28.7467 0.778667 28.2133 1.376 27.872C2.016 27.5307 2.592 27.5093 3.104 27.808C3.91467 28.2347 4.896 28.384 6.048 28.256C7.2 28.0853 8.07467 27.7227 8.672 27.168C9.35467 26.528 10.0587 25.4187 10.784 23.84C11.5093 22.2613 11.872 21.1307 11.872 20.448C11.872 20.0213 11.7653 19.7653 11.552 19.68C11.3387 19.552 10.7413 19.488 9.76 19.488C6.85867 19.488 5.10933 18.8053 4.512 17.44C3.91467 16.2027 3.89333 15.584 4.448 15.584C4.576 15.584 4.72533 15.6053 4.896 15.648C5.49333 15.8187 6.624 15.6693 8.288 15.2C11.744 14.3467 14.112 14.7093 15.392 16.288C16.2453 17.3547 16.3093 19.7653 15.584 23.52C15.4133 24.3733 15.4773 24.7787 15.776 24.736C16.0747 24.6507 16.352 24.1813 16.608 23.328C16.864 22.3467 17.2693 21.8347 17.824 21.792C18.3787 21.664 19.5733 20.768 21.408 19.104C23.2427 17.44 24.16 16.416 24.16 16.032C24.16 15.6907 23.9467 15.52 23.52 15.52C23.136 15.52 22.624 15.2213 21.984 14.624C21.3867 14.0267 21.152 13.6 21.28 13.344C21.4507 13.1307 22.0907 12.9173 23.2 12.704C24.3947 12.5333 25.3547 12.1067 26.08 11.424C26.8053 10.6987 27.2533 9.824 27.424 8.8L27.68 7.136L26.336 7.2C25.0987 7.28533 24.2667 7.264 23.84 7.136C23.456 7.008 23.1573 6.66666 22.944 6.112C22.5173 5.25866 22.368 4.74666 22.496 4.576C22.6667 4.36266 23.2853 4.256 24.352 4.256C25.5467 4.256 26.5493 4.08533 27.36 3.744C27.8293 3.53066 28.128 3.31733 28.256 3.104C28.4267 2.848 28.512 2.4 28.512 1.76ZM28.96 16.992C28.96 16.9067 28.7253 16.864 28.256 16.864C27.8293 16.864 27.7227 16.992 27.936 17.248C28.0213 17.4613 28.2133 17.5467 28.512 17.504C28.8107 17.4187 28.96 17.248 28.96 16.992ZM24.16 18.976C24.16 18.336 23.776 18.3787 23.008 19.104C22.9227 19.1893 22.7947 19.3173 22.624 19.488C22.0693 20.0853 21.92 20.384 22.176 20.384C22.4747 20.384 22.88 20.192 23.392 19.808C23.904 19.424 24.16 19.1467 24.16 18.976ZM18.592 28.32C19.7013 26.7413 20.2133 25.8027 20.128 25.504C20.0427 25.1627 19.872 25.184 19.616 25.568C19.36 25.9093 18.72 26.0373 17.696 25.952L16.096 25.824L14.688 29.536C13.7493 32.0107 13.28 33.3973 13.28 33.696C13.2373 34.2507 14.2827 33.312 16.416 30.88C17.2693 29.9413 17.9947 29.088 18.592 28.32ZM12.256 1.184C13.8347 1.73867 14.9013 2.272 15.456 2.784C16.0107 3.25333 16.2667 3.82933 16.224 4.512C16.1813 4.98133 16.0533 5.32267 15.84 5.536C15.6267 5.70666 15.2 5.83466 14.56 5.92C13.4933 6.09067 12.64 6.34667 12 6.688C11.4027 7.02933 11.104 7.072 11.104 6.816C11.104 6.56 11.2747 6.00533 11.616 5.152C11.7867 4.512 11.8507 4.04266 11.808 3.744C11.7653 3.44533 11.4667 3.01866 10.912 2.464C10.144 1.65333 9.76 1.07733 9.76 0.735996C9.76 0.394665 10.592 0.543999 12.256 1.184Z" fill="black"/>
</svg>
